<svg id="Layer_2" data-name="Layer 2" xmlns="http://www.w3.org/2000/svg" viewBox="0 0 79.02 81.25"><defs><style>.cls-1{fill:#f4f9f9;stroke:#c3d5dd;stroke-miterlimit:10;}.cls-2{fill:#768389;}</style></defs><title>dashboard-goals</title><path class="cls-1" d="M1886.86,2129.7s-21.3,2.75-37.79,5.1c0,0-.06-5.11-2.73-5.1s-1.79,3.48-1.78,5.17c0,1.88-1,5.78,1.83,5.72,1.37,0,2.29-.49,2.44-1.39,0.07-.45,41-6.38,41-6.38" transform="translate(-1843.91 -2077.85)"/><circle class="cls-1" cx="43.69" cy="33.74" r="33.24"/><path class="cls-1" d="M1887.92,2138.13s-20,7.83-35.42,14.12c0,0-1.3-4.94-3.89-4.28s-0.89,3.81-.47,5.44c0.47,1.83.48,5.84,3.16,5.1,1.32-.36,2.1-1,2-1.94,0-.45,38.22-16.14,38.22-16.14" transform="translate(-1843.91 -2077.85)"/><path class="cls-1" d="M1896.91,2128.48s15.91,20.76,18.6,22.36c2.52,1.5,6.31,2.71,6.9.19,0.46-2-4.51-2.47-6.34-3.71s-14.2-19.48-15-20.52" transform="translate(-1843.91 -2077.85)"/><ellipse class="cls-2" cx="1865.44" cy="2101.57" rx="2" ry="0.95" transform="translate(-2518.63 1225.4) rotate(-73.72)"/><ellipse class="cls-2" cx="1883.63" cy="2111.59" rx="2" ry="0.95" transform="translate(-2515.17 1250.07) rotate(-73.72)"/></svg>