<svg id="empty-graph" xmlns="http://www.w3.org/2000/svg" viewBox="0 0 104.05 76.11"><defs><style>.cls-1,.cls-4{fill:#f4f9f9;}.cls-1{stroke:#c3d5dd;}.cls-1,.cls-3{stroke-miterlimit:10;}.cls-2{fill:#768389;}.cls-3{fill:none;stroke:#768389;}</style></defs><title>dashboard-no-issues-graphic</title><circle class="cls-1" cx="52.28" cy="31.47" r="30.97"/><path class="cls-1" d="M2428.79,2125.13c-1.29-2.07-4.12-7.49-8-1s-8.47,18.62-8.85,17,1.26-14.62-3.39-15-8.43-1.07-8.43,1.84c0,2.47,4.36,2.71,6.49,2.52s0.27,13.59,3.58,16.27c2,1.65,4.86.28,8-6.49,3.87-8.23,5.3-11.49,6.68-11.72s3.08,2,3.08,2" transform="translate(-2399.62 -2086.2)"/><path class="cls-1" d="M2474.5,2125.13c1.29-2.07,4.12-7.49,8-1s8.47,18.62,8.85,17-1.26-14.62,3.39-15,8.43-1.07,8.43,1.84c0,2.47-4.36,2.71-6.49,2.52s-0.27,13.59-3.58,16.27c-2,1.65-4.86.28-8-6.49-3.87-8.23-5.3-11.49-6.68-11.72s-3.08,2-3.08,2" transform="translate(-2399.62 -2086.2)"/><ellipse class="cls-2" cx="60.97" cy="26.8" rx="0.9" ry="2.32"/><ellipse class="cls-2" cx="43.98" cy="26.8" rx="0.9" ry="2.32"/><path class="cls-3" d="M2440.76,2110.48s3.2,0.55,4.62-1.58" transform="translate(-2399.62 -2086.2)"/><path class="cls-3" d="M2462.43,2110.48s-3.2.55-4.62-1.58" transform="translate(-2399.62 -2086.2)"/><path class="cls-3" d="M2447.48,2126.43s-0.39,4.16,3.68,4.16c0,0,4.07.39,4.07-4.16" transform="translate(-2399.62 -2086.2)"/><ellipse class="cls-4" cx="52.28" cy="73.11" rx="26.31" ry="3"/></svg>