<svg id="Layer_2" data-name="Layer 2" xmlns="http://www.w3.org/2000/svg" viewBox="0 0 99.09 100.92"><defs><style>.cls-1{fill:#f4f9f9;stroke:#c3d5dd;}.cls-1,.cls-3{stroke-miterlimit:10;}.cls-2{fill:#768389;}.cls-3{fill:none;stroke:#768389;}</style></defs><title>dashboard-no-coverage</title><circle class="cls-1" cx="67.78" cy="65.58" r="30.81"/><ellipse class="cls-2" cx="58.02" cy="64.71" rx="1" ry="1.78"/><ellipse class="cls-2" cx="78.02" cy="64.71" rx="1" ry="1.78"/><path class="cls-3" d="M2617.9,1758.42s0.31,5.33,4.65,5.4,4.65-5.4,4.65-5.4" transform="translate(-2554.53 -1682.97)"/><path class="cls-1" d="M2649,1758.67s5.95,16.38.56,23.1c-2,2.48-4.11.19-3.41-1.44,1.89-4.44,2.52-7.48-.2-16.8" transform="translate(-2554.53 -1682.97)"/><path class="cls-1" d="M2609.21,1781.86a1.55,1.55,0,0,0,2.14,1.41c1.94-.63,3-0.65,3.11-1.19s1.31-6.21-2.61-9.66S2605.16,1776.57,2609.21,1781.86Z" transform="translate(-2554.53 -1682.97)"/><path class="cls-1" d="M2636,1781.11a1.55,1.55,0,0,1-1.9,1.71c-2-.34-3-0.2-3.25-0.71s-2.22-5.95,1.14-9.94S2639.26,1775.28,2636,1781.11Z" transform="translate(-2554.53 -1682.97)"/><path class="cls-1" d="M2598,1719.47h43.13c-4.77-35-42.48-36-42.48-36h-1.17s-37.66,1-42.43,36H2598Z" transform="translate(-2554.53 -1682.97)"/><rect class="cls-1" x="42.32" y="36.95" width="2.57" height="54.13"/><ellipse class="cls-1" cx="42.02" cy="78.7" rx="3.72" ry="4.16"/></svg>